<svg width="442" height="517" viewBox="0 0 442 517" fill="none" xmlns="http://www.w3.org/2000/svg">
<path d="M72.5 435C62.9792 435 53.5516 436.888 44.7555 440.557C35.9593 444.225 27.967 449.603 21.2348 456.381C14.5025 463.16 9.16221 471.207 5.51874 480.064C1.87528 488.921 3.60997e-06 498.413 3.19093e-06 508C2.77189e-06 517.586 1.87528 527.079 5.51874 535.936C9.1622 544.793 14.5025 552.84 21.2348 559.619C27.967 566.397 35.9594 571.775 44.7555 575.443C53.5516 579.112 62.9792 581 72.5 581L72.5 508L72.5 435Z" fill="#489D92"/>
<path d="M72.5 290C62.9792 290 53.5516 291.888 44.7555 295.557C35.9593 299.225 27.967 304.603 21.2348 311.381C14.5025 318.16 9.16221 326.207 5.51874 335.064C1.87528 343.921 3.60997e-06 353.413 3.19093e-06 363C2.77189e-06 372.586 1.87528 382.079 5.51874 390.936C9.1622 399.793 14.5025 407.84 21.2348 414.619C27.967 421.397 35.9594 426.775 44.7555 430.443C53.5516 434.112 62.9792 436 72.5 436L72.5 363L72.5 290Z" fill="#FC6A65"/>
<path d="M353 40.5V1M382.5 47L410 19.5M400 69.5H440.5" stroke="#035ECA" stroke-width="1.5" stroke-linecap="round"/>
</svg>
