<svg width="34" height="34" viewBox="0 0 34 34" fill="none" xmlns="http://www.w3.org/2000/svg">
<g filter="url(#filter0_d_5_1343)">
<path d="M17.4825 20.8614L22.9988 24.3563C23.704 24.8031 24.5794 24.1386 24.3702 23.3155L22.7764 17.0459C22.7315 16.8713 22.7368 16.6875 22.7917 16.5158C22.8466 16.3441 22.9489 16.1913 23.0868 16.0751L28.0335 11.9578C28.6835 11.4169 28.348 10.3381 27.5129 10.2839L21.0528 9.86468C20.8788 9.85225 20.7119 9.79064 20.5716 9.68704C20.4312 9.58343 20.3232 9.44208 20.2601 9.27946L17.8507 3.2121C17.7852 3.03949 17.6688 2.89089 17.5168 2.78602C17.3649 2.68116 17.1846 2.625 17 2.625C16.8154 2.625 16.6351 2.68116 16.4832 2.78602C16.3312 2.89089 16.2148 3.03949 16.1493 3.2121L13.74 9.27946C13.6768 9.44208 13.5688 9.58343 13.4285 9.68704C13.2881 9.79064 13.1212 9.85225 12.9472 9.86468L6.4871 10.2839C5.65201 10.3381 5.31653 11.4169 5.96651 11.9578L10.9132 16.0751C11.0511 16.1913 11.1534 16.3441 11.2083 16.5158C11.2632 16.6875 11.2685 16.8713 11.2236 17.0459L9.74553 22.8603C9.49444 23.848 10.545 24.6453 11.3912 24.1092L16.5175 20.8614C16.6617 20.7696 16.8291 20.7208 17 20.7208C17.1709 20.7208 17.3383 20.7696 17.4825 20.8614V20.8614Z" stroke="#217BF4" stroke-width="1.5" stroke-linecap="round" stroke-linejoin="round"/>
</g>
<defs>
<filter id="filter0_d_5_1343" x="-1" y="0" width="36" height="36" filterUnits="userSpaceOnUse" color-interpolation-filters="sRGB">
<feFlood flood-opacity="0" result="BackgroundImageFix"/>
<feColorMatrix in="SourceAlpha" type="matrix" values="0 0 0 0 0 0 0 0 0 0 0 0 0 0 0 0 0 0 127 0" result="hardAlpha"/>
<feOffset dy="4"/>
<feGaussianBlur stdDeviation="2"/>
<feComposite in2="hardAlpha" operator="out"/>
<feColorMatrix type="matrix" values="0 0 0 0 0 0 0 0 0 0 0 0 0 0 0 0 0 0 0.25 0"/>
<feBlend mode="normal" in2="BackgroundImageFix" result="effect1_dropShadow_5_1343"/>
<feBlend mode="normal" in="SourceGraphic" in2="effect1_dropShadow_5_1343" result="shape"/>
</filter>
</defs>
</svg>
